<svg width="19" height="18" viewBox="0 0 19 18" fill="none" xmlns="http://www.w3.org/2000/svg">
<path d="M16.6522 0H1.85024C0.832609 0 0.00925121 0.998308 0.00925121 2.21846L0 15.5292C0 16.7494 0.832609 17.7477 1.85024 17.7477H16.6522C17.6698 17.7477 18.5024 16.7494 18.5024 15.5292V2.21846C18.5024 0.998308 17.6698 0 16.6522 0ZM16.2821 4.71423L9.74153 9.61703C9.44549 9.83888 9.05694 9.83888 8.7609 9.61703L2.22029 4.71423C1.98901 4.53675 1.85024 4.23726 1.85024 3.91559C1.85024 3.1724 2.52558 2.72871 3.0529 3.11694L9.25121 7.76462L15.4495 3.11694C15.9768 2.72871 16.6522 3.1724 16.6522 3.91559C16.6522 4.23726 16.5134 4.53675 16.2821 4.71423Z" fill="#FFFDFD"/>
</svg>
