<svg width="32" height="32" viewBox="0 0 32 32" fill="none" xmlns="http://www.w3.org/2000/svg">
<mask id="mask0_83686_331" style="mask-type:alpha" maskUnits="userSpaceOnUse" x="0" y="0" width="32" height="32">
<rect width="32" height="32" fill="#D9D9D9"/>
</mask>
<g mask="url(#mask0_83686_331)">
<path d="M9.2288 16.6667L16.4798 23.918C16.6098 24.0478 16.6778 24.2008 16.6838 24.377C16.6898 24.553 16.6192 24.7146 16.4721 24.8617C16.3252 25.0034 16.168 25.0757 16.0005 25.0783C15.8329 25.0808 15.6757 25.0086 15.5288 24.8617L7.42114 16.754C7.30469 16.6376 7.22302 16.5187 7.17614 16.3973C7.12902 16.276 7.10547 16.1436 7.10547 16C7.10547 15.8564 7.12902 15.724 7.17614 15.6027C7.22302 15.4813 7.30469 15.3624 7.42114 15.246L15.5288 7.13833C15.6535 7.01367 15.8051 6.947 15.9838 6.93833C16.1625 6.92989 16.3252 6.99656 16.4721 7.13833C16.6192 7.28545 16.6928 7.444 16.6928 7.614C16.6928 7.78422 16.6192 7.94278 16.4721 8.08967L9.2288 15.3333H24.6671C24.8569 15.3333 25.0155 15.397 25.1428 15.5243C25.2701 15.6517 25.3338 15.8102 25.3338 16C25.3338 16.1898 25.2701 16.3483 25.1428 16.4757C25.0155 16.603 24.8569 16.6667 24.6671 16.6667H9.2288Z" fill="white"/>
</g>
</svg>
